<?xml version="1.0" encoding="UTF-8" standalone="no"?>
<!-- Created with Inkscape (http://www.inkscape.org/) -->

<svg
   version="1.1"
   id="svg29"
   xml:space="preserve"
   width="496"
   height="496"
   viewBox="0 0 496 496"
   sodipodi:docname="TWLHelper.svg"
   inkscape:version="1.2.1 (9c6d41e410, 2022-07-14)"
   inkscape:export-filename="TWLHelper.png"
   inkscape:export-xdpi="96"
   inkscape:export-ydpi="96"
   xmlns:inkscape="http://www.inkscape.org/namespaces/inkscape"
   xmlns:sodipodi="http://sodipodi.sourceforge.net/DTD/sodipodi-0.dtd"
   xmlns="http://www.w3.org/2000/svg"
   xmlns:svg="http://www.w3.org/2000/svg"
   xmlns:rdf="http://www.w3.org/1999/02/22-rdf-syntax-ns#"
   xmlns:cc="http://creativecommons.org/ns#"
   xmlns:dc="http://purl.org/dc/elements/1.1/"><metadata
     id="metadata35"><rdf:RDF><cc:Work
         rdf:about=""><dc:format>image/svg+xml</dc:format><dc:type
           rdf:resource="http://purl.org/dc/dcmitype/StillImage" /></cc:Work></rdf:RDF></metadata><defs
     id="defs33"><clipPath
       clipPathUnits="userSpaceOnUse"
       id="clipPath47"><path
         d="m 213,109.667 h 372 v 372 H 213 Z"
         id="path45"
         inkscape:connector-curvature="0" /></clipPath><clipPath
       clipPathUnits="userSpaceOnUse"
       id="clipPath63"><path
         d="M 321.358,418.69 H 476.643 V 130.644 H 321.358 Z"
         id="path61"
         inkscape:connector-curvature="0" /></clipPath><clipPath
       clipPathUnits="userSpaceOnUse"
       id="clipPath83"><path
         d="M 0,612 H 792 V 0 H 0 Z"
         id="path81"
         inkscape:connector-curvature="0" /></clipPath><clipPath
       clipPathUnits="userSpaceOnUse"
       id="clipPath91"><path
         d="m 387,242.495 h 9 v -9 h -9 z"
         id="path89"
         inkscape:connector-curvature="0" /></clipPath><clipPath
       clipPathUnits="userSpaceOnUse"
       id="clipPath107"><path
         d="m 396,221 h 16.745 V 204.255 H 396 Z"
         id="path105"
         inkscape:connector-curvature="0" /></clipPath><clipPath
       clipPathUnits="userSpaceOnUse"
       id="clipPath123"><path
         d="M 473.755,201.745 H 499.5 V 176 h -25.745 z"
         id="path121"
         inkscape:connector-curvature="0" /></clipPath><clipPath
       clipPathUnits="userSpaceOnUse"
       id="clipPath139"><path
         d="m 531.5,171.858 h 37.858 V 134 H 531.5 Z"
         id="path137"
         inkscape:connector-curvature="0" /></clipPath><clipPath
       clipPathUnits="userSpaceOnUse"
       id="clipPath155"><path
         d="m 556.5,231 h 18 v -18 h -18 z"
         id="path153"
         inkscape:connector-curvature="0" /></clipPath><clipPath
       clipPathUnits="userSpaceOnUse"
       id="clipPath171"><path
         d="m 438.5,141.745 h 16.745 V 125 H 438.5 Z"
         id="path169"
         inkscape:connector-curvature="0" /></clipPath><clipPath
       clipPathUnits="userSpaceOnUse"
       id="clipPath187"><path
         d="M 220.5,165 H 256 v -35.5 h -35.5 z"
         id="path185"
         inkscape:connector-curvature="0" /></clipPath><clipPath
       clipPathUnits="userSpaceOnUse"
       id="clipPath203"><path
         d="m 269.872,277.51 h 37.383 v -37.382 h -37.383 z"
         id="path201"
         inkscape:connector-curvature="0" /></clipPath><clipPath
       clipPathUnits="userSpaceOnUse"
       id="clipPath219"><path
         d="m 300.005,287.807 h 17.547 V 270.26 h -17.547 z"
         id="path217"
         inkscape:connector-curvature="0" /></clipPath><clipPath
       clipPathUnits="userSpaceOnUse"
       id="clipPath235"><path
         d="m 294,157.142 h 18.5 v -18.5 H 294 Z"
         id="path233"
         inkscape:connector-curvature="0" /></clipPath><clipPath
       clipPathUnits="userSpaceOnUse"
       id="clipPath251"><path
         d="M 315.358,181.5 H 327 v -11.642 h -11.642 z"
         id="path249"
         inkscape:connector-curvature="0" /></clipPath><clipPath
       id="clip0"><rect
         width="71"
         height="55"
         fill="white"
         id="rect2090" /></clipPath></defs><sodipodi:namedview
     pagecolor="#ffffff"
     bordercolor="#666666"
     borderopacity="1"
     objecttolerance="10"
     gridtolerance="10"
     guidetolerance="10"
     inkscape:pageopacity="0"
     inkscape:pageshadow="2"
     inkscape:window-width="1920"
     inkscape:window-height="1017"
     id="namedview31"
     showgrid="false"
     inkscape:zoom="1.28"
     inkscape:cx="199.21875"
     inkscape:cy="249.21875"
     inkscape:window-x="-8"
     inkscape:window-y="-8"
     inkscape:window-maximized="1"
     inkscape:current-layer="layer5"
     inkscape:object-paths="false"
     inkscape:snap-text-baseline="false"
     inkscape:snap-page="false"
     inkscape:showpageshadow="2"
     inkscape:pagecheckerboard="0"
     inkscape:deskcolor="#d1d1d1" /><g
     id="g37"
     inkscape:groupmode="layer"
     inkscape:label="3"
     transform="matrix(1.3333333,0,0,-1.3333333,0,496)"><path
   d="M 0,0 H 372 V 372 H 0 Z"
   style="fill:#437bbe;fill-opacity:1;fill-rule:nonzero;stroke:none"
   id="path39"
   inkscape:connector-curvature="0" /><g
   id="g41"
   transform="translate(-213,-109.667)"><g
     id="g43"
     clip-path="url(#clipPath47)"><g
       id="g49"
       transform="translate(499.5,237.5)"><path
         d="m 0,0 c -60.086,-2.095 -96.395,41.244 -100.375,46.167 -4.834,5.744 -38.13,43.97 -94.125,44.833 -47.049,0.726 -79.022,-25.402 -92,-38.352 v -192.481 h 372 V 39.133 C 73.03,26.209 43.775,1.526 0,0"
         style="fill:#609ad1;fill-opacity:1;fill-rule:nonzero;stroke:none"
         id="path51"
         inkscape:connector-curvature="0" /></g><g
       id="g53"
       transform="translate(206.875,283.667)"><path
         d="M 0,0 C 4.551,5.405 39.709,45.731 98,44.833 153.995,43.97 187.291,5.744 192.125,0 c 3.98,-4.923 40.289,-48.262 100.375,-46.167 54.968,1.916 87.07,40.365 91.75,46.167"
         style="fill:none;stroke:#67cbeb;stroke-width:7;stroke-linecap:butt;stroke-linejoin:miter;stroke-miterlimit:10;stroke-dasharray:none;stroke-opacity:1"
         id="path55"
         inkscape:connector-curvature="0" /></g><g
       id="g57"><g
         id="g59" /><g
         id="g71"><g
           clip-path="url(#clipPath63)"
           id="g69"
           style="opacity:0.27999902"><text
   transform="matrix(1,0,0,-1,321.3579,196.8916)"
   style="font-variant:normal;font-weight:bold;font-stretch:normal;font-size:264.99081421px;font-family:'Myriad Pro';-inkscape-font-specification:MyriadPro-Bold;writing-mode:lr-tb;fill:#ffffff;fill-opacity:1;fill-rule:nonzero;stroke:none"
   id="text67"><tspan
     x="0"
     y="0"
     id="tspan65" /></text>
</g></g></g></g></g><text
   transform="scale(1,-1)"
   style="font-variant:normal;font-weight:bold;font-stretch:normal;font-size:264.99081421px;font-family:'Myriad Pro';-inkscape-font-specification:MyriadPro-Bold;writing-mode:lr-tb;fill:#ffffff;fill-opacity:1;fill-rule:nonzero;stroke:none"
   id="text75"
   x="108.35792"
   y="-96.224602"><tspan
     x="108.35792"
     y="-96.224602"
     id="tspan73" /></text>
<g
   id="g77"
   transform="translate(-213,-109.667)"><g
     id="g79"
     clip-path="url(#clipPath83)"><g
       id="g85"><g
         id="g87" /><g
         id="g99"><g
           clip-path="url(#clipPath91)"
           id="g97"
           style="opacity:0.27999902"><g
             transform="translate(392.7451,233.4951)"
             id="g95"><path
               d="m 0,0 h -2.49 c -1.798,0 -3.255,1.457 -3.255,3.255 v 2.49 C -5.745,7.543 -4.288,9 -2.49,9 H 0 C 1.797,9 3.255,7.543 3.255,5.745 V 3.255 C 3.255,1.457 1.797,0 0,0"
               style="fill:#ffffff;fill-opacity:1;fill-rule:nonzero;stroke:none"
               id="path93"
               inkscape:connector-curvature="0" /></g></g></g></g><g
       id="g101"><g
         id="g103" /><g
         id="g115"><g
           clip-path="url(#clipPath107)"
           id="g113"
           style="opacity:0.27999902"><g
             transform="translate(409.4902,204.2549)"
             id="g111"><path
               d="m 0,0 h -10.235 c -1.798,0 -3.255,1.458 -3.255,3.255 V 13.49 c 0,1.798 1.457,3.255 3.255,3.255 H 0 c 1.797,0 3.255,-1.457 3.255,-3.255 V 3.255 C 3.255,1.458 1.797,0 0,0"
               style="fill:#ffffff;fill-opacity:1;fill-rule:nonzero;stroke:none"
               id="path109"
               inkscape:connector-curvature="0" /></g></g></g></g><g
       id="g117"><g
         id="g119" /><g
         id="g131"><g
           clip-path="url(#clipPath123)"
           id="g129"
           style="opacity:0.27999902"><g
             transform="translate(496.2451,176)"
             id="g127"><path
               d="m 0,0 h -19.235 c -1.797,0 -3.255,1.457 -3.255,3.255 V 22.49 c 0,1.797 1.458,3.255 3.255,3.255 H 0 c 1.798,0 3.255,-1.458 3.255,-3.255 V 3.255 C 3.255,1.457 1.798,0 0,0"
               style="fill:#ffffff;fill-opacity:1;fill-rule:nonzero;stroke:none"
               id="path125"
               inkscape:connector-curvature="0" /></g></g></g></g><g
       id="g133"><g
         id="g135" /><g
         id="g147"><g
           clip-path="url(#clipPath139)"
           id="g145"
           style="opacity:0.27999902"><g
             transform="translate(566.1025,134)"
             id="g143"><path
               d="m 0,0 h -31.348 c -1.798,0 -3.255,1.457 -3.255,3.255 v 31.348 c 0,1.797 1.457,3.254 3.255,3.254 H 0 c 1.798,0 3.255,-1.457 3.255,-3.254 V 3.255 C 3.255,1.457 1.798,0 0,0"
               style="fill:#ffffff;fill-opacity:1;fill-rule:nonzero;stroke:none"
               id="path141"
               inkscape:connector-curvature="0" /></g></g></g></g><g
       id="g149"><g
         id="g151" /><g
         id="g163"><g
           clip-path="url(#clipPath155)"
           id="g161"
           style="opacity:0.27999902"><g
             transform="translate(559.7549,213)"
             id="g159"><path
               d="m 0,0 h 11.49 c 1.798,0 3.255,1.457 3.255,3.255 v 11.49 C 14.745,16.543 13.288,18 11.49,18 H 0 c -1.798,0 -3.255,-1.457 -3.255,-3.255 V 3.255 C -3.255,1.457 -1.798,0 0,0"
               style="fill:#ffffff;fill-opacity:1;fill-rule:nonzero;stroke:none"
               id="path157"
               inkscape:connector-curvature="0" /></g></g></g></g><g
       id="g165"><g
         id="g167" /><g
         id="g179"><g
           clip-path="url(#clipPath171)"
           id="g177"
           style="opacity:0.27999902"><g
             transform="translate(441.7549,125)"
             id="g175"><path
               d="m 0,0 h 10.235 c 1.797,0 3.255,1.457 3.255,3.255 V 13.49 c 0,1.797 -1.458,3.255 -3.255,3.255 H 0 c -1.798,0 -3.255,-1.458 -3.255,-3.255 V 3.255 C -3.255,1.457 -1.798,0 0,0"
               style="fill:#ffffff;fill-opacity:1;fill-rule:nonzero;stroke:none"
               id="path173"
               inkscape:connector-curvature="0" /></g></g></g></g><g
       id="g181"><g
         id="g183" /><g
         id="g195"><g
           clip-path="url(#clipPath187)"
           id="g193"
           style="opacity:0.27999902"><g
             transform="translate(252.7451,129.5)"
             id="g191"><path
               d="m 0,0 h -28.99 c -1.798,0 -3.255,1.457 -3.255,3.255 v 28.99 c 0,1.798 1.457,3.255 3.255,3.255 H 0 c 1.797,0 3.255,-1.457 3.255,-3.255 V 3.255 C 3.255,1.457 1.797,0 0,0"
               style="fill:#ffffff;fill-opacity:1;fill-rule:nonzero;stroke:none"
               id="path189"
               inkscape:connector-curvature="0" /></g></g></g></g><g
       id="g197"><g
         id="g199" /><g
         id="g211"><g
           clip-path="url(#clipPath203)"
           id="g209"
           style="opacity:0.27999902"><g
             transform="translate(304,240.1279)"
             id="g207"><path
               d="m 0,0 h -30.873 c -1.797,0 -3.254,1.457 -3.254,3.255 v 30.872 c 0,1.798 1.457,3.255 3.254,3.255 H 0 c 1.798,0 3.255,-1.457 3.255,-3.255 V 3.255 C 3.255,1.457 1.798,0 0,0"
               style="fill:#ffffff;fill-opacity:1;fill-rule:nonzero;stroke:none"
               id="path205"
               inkscape:connector-curvature="0" /></g></g></g></g><g
       id="g213"><g
         id="g215" /><g
         id="g227"><g
           clip-path="url(#clipPath219)"
           id="g225"
           style="opacity:0.27999902"><g
             transform="translate(303.2603,270.2598)"
             id="g223"><path
               d="m 0,0 h 11.036 c 1.798,0 3.256,1.458 3.256,3.256 v 11.036 c 0,1.798 -1.458,3.255 -3.256,3.255 H 0 c -1.798,0 -3.255,-1.457 -3.255,-3.255 V 3.256 C -3.255,1.458 -1.798,0 0,0"
               style="fill:#ffffff;fill-opacity:1;fill-rule:nonzero;stroke:none"
               id="path221"
               inkscape:connector-curvature="0" /></g></g></g></g><g
       id="g229"><g
         id="g231" /><g
         id="g243"><g
           clip-path="url(#clipPath235)"
           id="g241"
           style="opacity:0.27999902"><g
             transform="translate(309.2451,138.6426)"
             id="g239"><path
               d="m 0,0 h -11.99 c -1.798,0 -3.255,1.457 -3.255,3.255 v 11.989 c 0,1.798 1.457,3.256 3.255,3.256 H 0 c 1.797,0 3.255,-1.458 3.255,-3.256 V 3.255 C 3.255,1.457 1.797,0 0,0"
               style="fill:#ffffff;fill-opacity:1;fill-rule:nonzero;stroke:none"
               id="path237"
               inkscape:connector-curvature="0" /></g></g></g></g><g
       id="g245"><g
         id="g247" /><g
         id="g259"><g
           clip-path="url(#clipPath251)"
           id="g257"
           style="opacity:0.27999902"><g
             transform="translate(323.7451,169.8574)"
             id="g255"><path
               d="M 0,0 H -5.132 C -6.93,0 -8.387,1.458 -8.387,3.256 v 5.132 c 0,1.798 1.457,3.255 3.255,3.255 H 0 c 1.797,0 3.255,-1.457 3.255,-3.255 V 3.256 C 3.255,1.458 1.797,0 0,0"
               style="fill:#ffffff;fill-opacity:1;fill-rule:nonzero;stroke:none"
               id="path253"
               inkscape:connector-curvature="0" /></g></g></g></g></g></g></g><g
     inkscape:groupmode="layer"
     id="layer5"
     inkscape:label="Layer 1"><g
       style="fill:#609ad1;fill-opacity:1"
       id="g2139"
       transform="matrix(5.4388906,0,0,5.4520377,54.919378,98.229499)"><path
         d="M 60.1045,4.8978 C 55.5792,2.8214 50.7265,1.2916 45.6527,0.41542 45.5603,0.39851 45.468,0.440769 45.4204,0.525289 44.7963,1.6353 44.105,3.0834 43.6209,4.2216 38.1637,3.4046 32.7345,3.4046 27.3892,4.2216 26.905,3.0581 26.1886,1.6353 25.5617,0.525289 25.5141,0.443589 25.4218,0.40133 25.3294,0.41542 20.2584,1.2888 15.4057,2.8186 10.8776,4.8978 10.8384,4.9147 10.8048,4.9429 10.7825,4.9795 1.57795,18.7309 -0.943561,32.1443 0.293408,45.3914 c 0.005597,0.0648 0.041978,0.1268 0.092353,0.1662 6.072899,4.4598 11.955539,7.1673 17.728939,8.9619 0.0924,0.0282 0.1903,-0.0056 0.2491,-0.0817 1.3657,-1.865 2.5831,-3.8315 3.6269,-5.8995 0.0616,-0.1211 0.0028,-0.2648 -0.1231,-0.3127 -1.931,-0.7325 -3.7697,-1.6256 -5.5384,-2.6398 -0.1399,-0.0817 -0.1511,-0.2818 -0.0224,-0.3776 0.3722,-0.2789 0.7445,-0.5691 1.0999,-0.8621 0.0643,-0.0535 0.1539,-0.0648 0.2295,-0.031 11.6196,5.3051 24.1992,5.3051 35.6817,0 0.0756,-0.0366 0.1652,-0.0253 0.2323,0.0282 0.3555,0.293 0.7277,0.586 1.1027,0.8649 0.1287,0.0958 0.1203,0.2959 -0.0196,0.3776 -1.7687,1.0339 -3.6074,1.9073 -5.5412,2.637 -0.1259,0.0479 -0.1819,0.1944 -0.1203,0.3155 1.0662,2.0651 2.2836,4.0316 3.6241,5.8967 0.056,0.0789 0.1567,0.1127 0.2491,0.0845 5.8014,-1.7946 11.684,-4.5021 17.7569,-8.9619 0.0532,-0.0394 0.0868,-0.0986 0.0924,-0.1634 C 72.1747,30.0791 68.2147,16.7757 60.1968,4.9823 60.1772,4.9429 60.1437,4.9147 60.1045,4.8978 Z M 23.7259,37.3253 c -3.4983,0 -6.3808,-3.2117 -6.3808,-7.156 0,-3.9443 2.8266,-7.156 6.3808,-7.156 3.5821,0 6.4367,3.2399 6.3807,7.156 0,3.9443 -2.8266,7.156 -6.3807,7.156 z m 23.5919,0 c -3.4982,0 -6.3807,-3.2117 -6.3807,-7.156 0,-3.9443 2.8265,-7.156 6.3807,-7.156 3.5822,0 6.4367,3.2399 6.3808,7.156 0,3.9443 -2.7986,7.156 -6.3808,7.156 z"
         fill="#ffffff"
         id="path2137"
         clip-path="url(#clipPath2106)"
         style="fill:#7ba2d1;fill-opacity:1" /></g><g
       style="fill:none"
       id="g2113"
       transform="matrix(4.7591026,0,0,4.7591026,79.051853,117.26481)"><path
         d="M 60.1045,4.8978 C 55.5792,2.8214 50.7265,1.2916 45.6527,0.41542 45.5603,0.39851 45.468,0.440769 45.4204,0.525289 44.7963,1.6353 44.105,3.0834 43.6209,4.2216 38.1637,3.4046 32.7345,3.4046 27.3892,4.2216 26.905,3.0581 26.1886,1.6353 25.5617,0.525289 25.5141,0.443589 25.4218,0.40133 25.3294,0.41542 20.2584,1.2888 15.4057,2.8186 10.8776,4.8978 10.8384,4.9147 10.8048,4.9429 10.7825,4.9795 1.57795,18.7309 -0.943561,32.1443 0.293408,45.3914 c 0.005597,0.0648 0.041978,0.1268 0.092353,0.1662 6.072899,4.4598 11.955539,7.1673 17.728939,8.9619 0.0924,0.0282 0.1903,-0.0056 0.2491,-0.0817 1.3657,-1.865 2.5831,-3.8315 3.6269,-5.8995 0.0616,-0.1211 0.0028,-0.2648 -0.1231,-0.3127 -1.931,-0.7325 -3.7697,-1.6256 -5.5384,-2.6398 -0.1399,-0.0817 -0.1511,-0.2818 -0.0224,-0.3776 0.3722,-0.2789 0.7445,-0.5691 1.0999,-0.8621 0.0643,-0.0535 0.1539,-0.0648 0.2295,-0.031 11.6196,5.3051 24.1992,5.3051 35.6817,0 0.0756,-0.0366 0.1652,-0.0253 0.2323,0.0282 0.3555,0.293 0.7277,0.586 1.1027,0.8649 0.1287,0.0958 0.1203,0.2959 -0.0196,0.3776 -1.7687,1.0339 -3.6074,1.9073 -5.5412,2.637 -0.1259,0.0479 -0.1819,0.1944 -0.1203,0.3155 1.0662,2.0651 2.2836,4.0316 3.6241,5.8967 0.056,0.0789 0.1567,0.1127 0.2491,0.0845 5.8014,-1.7946 11.684,-4.5021 17.7569,-8.9619 0.0532,-0.0394 0.0868,-0.0986 0.0924,-0.1634 C 72.1747,30.0791 68.2147,16.7757 60.1968,4.9823 60.1772,4.9429 60.1437,4.9147 60.1045,4.8978 Z M 23.7259,37.3253 c -3.4983,0 -6.3808,-3.2117 -6.3808,-7.156 0,-3.9443 2.8266,-7.156 6.3808,-7.156 3.5821,0 6.4367,3.2399 6.3807,7.156 0,3.9443 -2.8266,7.156 -6.3807,7.156 z m 23.5919,0 c -3.4982,0 -6.3807,-3.2117 -6.3807,-7.156 0,-3.9443 2.8265,-7.156 6.3807,-7.156 3.5822,0 6.4367,3.2399 6.3808,7.156 0,3.9443 -2.7986,7.156 -6.3808,7.156 z"
         fill="#ffffff"
         id="path2086"
         clip-path="url(#clipPath2106)" /></g></g></svg>
